<svg xmlns="http://www.w3.org/2000/svg" fill="none" viewBox="0 0 74 97" height="97" width="74">
<path stroke="url(#paint0_linear_851_2696)" d="M64.2885 80.673C62.4142 74.8786 59.8975 69.3121 56.7853 64.0774L56.7847 64.0764C55.9416 62.6658 55.1854 61.8604 54.3084 61.6499C53.4236 61.4375 52.5977 61.8798 51.8023 62.3577C51.6509 62.4486 51.4949 62.5448 51.3332 62.6445C49.7602 63.6147 47.6485 64.917 43.968 64.9565C42.3782 63.7008 40.9171 62.4327 39.5253 61.2247C38.6541 60.4687 37.8102 59.7362 36.9788 59.0451C34.8126 57.2443 32.7513 55.7424 30.673 55.045C28.5548 54.3343 26.4327 54.4639 24.2044 55.874C22.0103 57.2626 19.735 59.8781 17.2158 64.0756L17.6445 64.3329L17.2158 64.0756C13.0876 70.954 10.8805 77.1132 9.71194 80.6719C9.19347 82.234 9.7248 84.1273 11.4079 84.6275C15.185 85.7573 22.6236 87.0214 37 87.0214C51.3776 87.0214 58.8162 85.7571 62.593 84.6273L62.5939 84.627C64.2735 84.1211 64.8069 82.2366 64.2885 80.673ZM64.2885 80.673C64.2887 80.6737 64.2889 80.6744 64.2891 80.6751L63.8134 80.8289L64.2879 80.6714C64.2881 80.6719 64.2883 80.6725 64.2885 80.673ZM70.5322 75.0792L70.5322 75.0793C70.7802 75.6983 71.0505 76.3264 71.3238 76.9614C72.0231 78.5866 72.7422 80.2575 73.158 81.9402C73.7288 84.2496 73.688 86.4479 72.2409 88.3861C70.7737 90.351 67.7878 92.1514 62.2044 93.4528C56.6329 94.7514 48.552 95.5354 37 95.5354C25.448 95.5354 17.3671 94.7514 11.7956 93.4528C6.21217 92.1514 3.22632 90.351 1.75916 88.3861C0.312 86.4479 0.271253 84.2496 0.841981 81.9402C1.25782 80.2575 1.97688 78.5866 2.67623 76.9614C2.94951 76.3264 3.21978 75.6983 3.46777 75.0793L3.4678 75.0792C8.53586 62.4227 13.9996 54.1578 18.3817 47.5292C18.6545 47.1165 18.9231 46.7102 19.1871 46.3096C23.6834 39.4877 26.929 34.2249 26.929 27.3238V11.4673V10.9673H26.429H23.7862C23.218 10.9673 22.6729 10.7415 22.2711 10.3397C21.8692 9.93781 21.6435 9.39279 21.6435 8.8245V3.53899C21.6435 2.9707 21.8692 2.42568 22.2711 2.02384C22.6729 1.62199 23.218 1.39624 23.7862 1.39624H50.2138C50.7821 1.39624 51.3271 1.62199 51.7289 2.02384C52.1308 2.42568 52.3565 2.9707 52.3565 3.53899V8.8245C52.3565 9.39279 52.1308 9.93781 51.7289 10.3397C51.3271 10.7415 50.7821 10.9673 50.2138 10.9673H47.571H47.071V11.4673V27.3238C47.071 34.2249 50.3166 39.4877 54.8129 46.3096C55.0769 46.7102 55.3455 47.1165 55.6183 47.5292C60.0004 54.1578 65.4641 62.4227 70.5322 75.0792Z"></path>
<path stroke="url(#paint2_linear_851_2696)" fill="#9939F2" d="M11.131 84.0412L11.1319 84.0415C14.8549 85.169 22.3419 86.4741 36.9832 86.4741C51.6234 86.4741 59.1103 85.1692 62.8337 84.0418L11.131 84.0412ZM11.131 84.0412C10.1551 83.7476 9.6453 82.5353 10.0691 81.2434L10.0696 81.2418M11.131 84.0412L10.0696 81.2418M10.0696 81.2418C11.2518 77.5968 13.479 71.3063 17.6421 64.2839C20.1877 59.9901 22.4135 57.4478 24.4557 56.1395C26.4628 54.8536 28.3105 54.7471 30.197 55.3879C32.1244 56.0426 34.1041 57.4818 36.3131 59.3409C37.1277 60.0264 37.9767 60.7721 38.8616 61.5493C40.3424 62.8498 41.9239 64.2389 43.6138 65.5831L43.7505 65.6918M10.0696 81.2418L43.7505 65.6918M43.7505 65.6918H43.9251M43.7505 65.6918H43.9251M43.9251 65.6918C48.0875 65.6918 50.4998 64.1837 52.1538 63.1495C52.3185 63.0466 52.4756 62.9483 52.6262 62.8567C53.4874 62.333 53.9812 62.1349 54.4261 62.243C54.8799 62.3533 55.4671 62.8323 56.3233 64.2821C59.4644 69.6309 62.0045 75.3188 63.8962 81.2397L63.8974 81.2434M43.9251 65.6918L63.8974 81.2434M63.8974 81.2434C64.3205 82.5332 63.813 83.7425 62.8346 84.0415L63.8974 81.2434Z"></path>
<defs>
<linearGradient gradientUnits="userSpaceOnUse" y2="8.3855" x2="82.8879" y1="0.89624" x1="0" id="paint0_linear_851_2696">
<stop stop-color="#9939F2"></stop>
<stop stop-color="#9939F2" offset="1"></stop>
</linearGradient>
<linearGradient gradientUnits="userSpaceOnUse" y2="66.321" x2="69.3388" y1="54.5048" x1="9.42201" id="paint1_linear_851_2696">
<stop stop-color="#9939F2"></stop>
<stop stop-color="#9939F2" offset="1"></stop>
</linearGradient>
<linearGradient gradientUnits="userSpaceOnUse" y2="66.321" x2="69.3388" y1="54.5048" x1="9.42201" id="paint2_linear_851_2696">
<stop stop-color="#9939F2"></stop>
<stop stop-color="#9939F2" offset="1"></stop>
</linearGradient>
</defs>
</svg>