
<svg xmlns="http://www.w3.org/2000/svg" fill="none" viewBox="0 0 74 83" height="83" width="74">
<path stroke="url(#paint0_linear_851_2704)" d="M73.3761 20.607L73.3762 20.6084C73.3952 20.7943 74.3763 31.7568 70.4875 44.8263C66.6024 57.883 57.867 73.0185 38.4612 81.6485L38.4587 81.6497C38.0002 81.8566 37.503 81.9636 37 81.9636C36.497 81.9636 35.9998 81.8566 35.5413 81.6497L35.5388 81.6485C16.133 73.0185 7.39756 57.882 3.51254 44.8248C1.56914 38.2932 0.841444 32.2859 0.602748 27.8843C0.483433 25.6841 0.48639 23.8867 0.520408 22.6278C0.537415 21.9983 0.562182 21.5037 0.583289 21.1607C0.593842 20.9892 0.603476 20.8558 0.61076 20.7624C0.614402 20.7157 0.61745 20.6792 0.619722 20.653L0.622497 20.6218L0.623359 20.6127L0.623622 20.6099L0.623728 20.6089L0.623838 20.6078C0.684624 20.0035 0.896996 19.4243 1.24127 18.924C1.58545 18.4237 2.05033 18.0185 2.59283 17.7457C2.59296 17.7457 2.59309 17.7456 2.59323 17.7455L35.3871 1.3486L35.3872 1.34853C35.8873 1.0983 36.4388 0.968018 36.998 0.968018C37.5571 0.968018 38.1086 1.0983 38.6087 1.34853L38.6088 1.3486L71.4036 17.746L71.4042 17.7463C71.9481 18.0173 72.4143 18.422 72.7591 18.9223C73.104 19.4226 73.3163 20.0023 73.3761 20.607ZM36.7824 74.2872L37.0002 74.3925L37.218 74.287C64.975 60.8413 66.4665 31.7356 66.3142 23.5533L66.3086 23.2507L66.038 23.1154L37.2236 8.70618L37 8.59435L36.7764 8.70616L7.94157 23.1236L7.67357 23.2576L7.66536 23.5571C7.43899 31.8177 8.74586 60.7349 36.7824 74.2872Z"></path>
<path stroke="url(#paint2_linear_851_2704)" fill="#9939F2" d="M32.5472 44.2204L32.9008 44.5739L33.2543 44.2204L50.4993 26.9754L55.5886 32.0648L32.9008 54.7527L18.4116 40.2635L23.5009 35.1741L32.5472 44.2204Z"></path>
<defs>
<linearGradient gradientUnits="userSpaceOnUse" y2="9.13348" x2="82.6561" y1="0.468018" x1="0" id="paint0_linear_851_2704">
<stop stop-color="#9939F2"></stop>
<stop stop-color="#9939F2" offset="1"></stop>
</linearGradient>
<linearGradient gradientUnits="userSpaceOnUse" y2="32.8066" x2="60.2796" y1="26.2683" x1="17.7045" id="paint1_linear_851_2704">
<stop stop-color="#9939F2"></stop>
<stop stop-color="#9939F2" offset="1"></stop>
</linearGradient>
<linearGradient gradientUnits="userSpaceOnUse" y2="32.8066" x2="60.2796" y1="26.2683" x1="17.7045" id="paint2_linear_851_2704">
<stop stop-color="#9939F2"></stop>
<stop stop-color="#9939F2" offset="1"></stop>
</linearGradient>
</defs>
</svg>
