
<svg xmlns="http://www.w3.org/2000/svg" fill="none" viewBox="0 0 76 113" height="113" width="76">
<path fill="url(#paint0_linear_851_2712)" d="M38 0.21582C17.3244 0.21582 0.5 15.0077 0.5 33.1896C0.5 42.8083 6.815 52.7121 12.9144 62.2821C18.17 70.5189 23.1894 78.3808 24.7569 86.4658H51.2412C52.8125 78.3789 57.8262 70.5171 63.08 62.2821C69.1831 52.7121 75.5 42.8083 75.5 33.1896C75.5 15.0077 58.6756 0.21582 38 0.21582ZM38 52.1046C41.6225 56.0139 45.035 57.1764 46.595 57.5214C46.3606 58.5621 46.1488 59.5783 45.9031 60.5796C45.4419 62.6271 44.9919 64.6221 44.555 66.5383C43.3377 71.9242 42.1533 77.3174 41.0019 82.7177H34.9963C33.8421 77.318 32.6577 71.9248 31.4431 66.5383L30.0912 60.5796C29.8456 59.5783 29.6338 58.5621 29.4031 57.5214C30.965 57.1764 34.3775 56.0139 38 52.1046ZM36.9894 48.0114C36.6313 47.2371 36.5019 46.4458 36.8694 45.8627C37.1769 45.3996 37.5837 45.1352 38.0019 45.1352C38.42 45.1352 38.8231 45.3996 39.1344 45.8627C39.5 46.4458 39.3725 47.2352 39.0144 48.0114C38.75 48.5589 38.3881 49.0802 38 49.5846C37.6078 49.0979 37.269 48.5705 36.9894 48.0114ZM59.9206 60.2627C55.0775 67.8546 50.4725 75.0714 48.29 82.7158H42.2038C43.5531 77.4324 44.8738 72.1417 46.1656 66.8439C46.6269 64.9296 47.1144 62.9477 47.6112 60.9039C47.8887 59.8164 48.1344 58.6952 48.4062 57.5796C49.8238 57.4839 51.1794 57.0414 52.2369 56.0721C53.3206 55.0052 53.885 53.6102 53.6319 52.1214C53.5175 51.4089 52.9831 50.4864 51.9519 50.1714C51.4476 50.0014 50.9034 49.9889 50.3919 50.1358C49.9659 50.2936 49.5822 50.5477 49.2706 50.8783C48.2713 51.9883 47.9075 53.0964 47.4988 54.1952C47.3075 54.7483 47.15 55.3014 47 55.8471C47 55.8471 45.4063 55.9689 41.9975 53.6758C40.1038 52.4027 39.5581 51.4821 39.0087 50.8727C39.6012 50.2146 40.1694 49.4927 40.61 48.6171C40.8444 48.1277 41.0413 47.5971 41.1088 47.0008C41.1763 46.4046 41.0656 45.7296 40.7244 45.1483C40.3601 44.5039 39.7885 44.0016 39.1025 43.7233C38.7613 43.6014 38.3806 43.5433 38 43.5433C37.6194 43.5433 37.235 43.5996 36.8975 43.7233C36.2108 44.0021 35.6382 44.5041 35.2719 45.1483C34.9306 45.7314 34.8219 46.4046 34.8875 47.0008C34.9631 47.564 35.133 48.1103 35.39 48.6171C35.8287 49.4927 36.3969 50.2164 36.9912 50.8727C36.4419 51.4821 35.8925 52.4027 33.9987 53.6758C30.59 55.9708 28.9963 55.8471 28.9963 55.8471C28.8492 55.2912 28.6841 54.7403 28.5012 54.1952C28.0869 53.0964 27.7288 51.9883 26.7294 50.8783C26.4181 50.5474 26.0343 50.2932 25.6081 50.1358C25.0966 49.9889 24.5524 50.0014 24.0481 50.1714C23.0112 50.4864 22.4806 51.4089 22.3681 52.1214C22.1113 53.6102 22.6794 55.0052 23.7631 56.0721C24.8244 57.0414 26.1763 57.4839 27.5938 57.5796C27.8619 58.6971 28.1056 59.8164 28.3888 60.9039L29.8344 66.8439C31.1273 72.1414 32.448 77.4321 33.7962 82.7158H27.71C25.5312 75.0789 20.9244 67.8621 16.0681 60.2552C10.2575 51.1371 4.25 41.7096 4.25 33.1896C4.25 17.0758 19.3888 3.96582 38 3.96582C56.6094 3.96582 71.75 17.0758 71.75 33.1896C71.75 41.7133 65.7369 51.1427 59.9206 60.2627ZM48.8731 55.8358C48.9837 55.4514 49.0962 55.0614 49.2275 54.6864C49.5819 53.6983 50.0337 52.6239 50.6487 51.9808C50.795 51.8158 50.945 51.7502 51.0219 51.7071C51.0219 51.7146 51.2056 51.6846 51.3219 51.7427C51.53 51.7952 51.7287 52.0108 51.8056 52.4252C51.9556 53.2277 51.575 54.2608 50.8869 54.9077C50.4031 55.3671 49.6569 55.6896 48.8731 55.8358ZM27.1231 55.8358C26.3394 55.6896 25.5931 55.3671 25.1131 54.9058C24.4213 54.2589 24.0444 53.2258 24.1944 52.4233C24.2712 52.0071 24.4681 51.7933 24.6781 51.7408C24.7963 51.6846 24.9781 51.7127 24.9781 51.7052C25.0513 51.7483 25.205 51.8158 25.3438 51.9789C25.9625 52.6239 26.4125 53.6964 26.7688 54.6846C26.9 55.0614 27.0144 55.4514 27.1231 55.8358ZM27.725 89.3852H25.85V96.1352H27.29V102.137H28.73V108.139H31.1412C32.2756 110.818 34.9006 112.716 38 112.716C41.0975 112.716 43.7206 110.818 44.8588 108.135H47.3469V102.096L47.5569 102.019L48.785 101.569V96.0883L48.9069 96.0489L50.2213 95.6364V89.3833H27.725V89.3852Z"></path>
<defs>
<linearGradient gradientUnits="userSpaceOnUse" y2="6.73569" x2="84.6889" y1="0.21582" x1="0.5" id="paint0_linear_851_2712">
<stop stop-color="#9939F2"></stop>
<stop stop-color="#9939F2" offset="1"></stop>
</linearGradient>
</defs>
</svg>
