<svg viewBox="0 0 20 18" focusable="false"><path d="M20 2.8a8.217 8.217 0 0 1-2.356.645 4.114 4.114 0 0 0 1.804-2.27 8.192 8.192 0 0 1-2.606.994A4.104 4.104 0 0 0 9.85 5.913a11.652 11.652 0 0 1-8.457-4.288 4.105 4.105 0 0 0 1.27 5.479A4.093 4.093 0 0 1 .804 6.59v.053a4.105 4.105 0 0 0 3.292 4.024 4.133 4.133 0 0 1-1.853.07 4.105 4.105 0 0 0 3.833 2.849 8.234 8.234 0 0 1-5.097 1.757c-.327 0-.654-.019-.979-.057a11.605 11.605 0 0 0 6.29 1.843c7.548 0 11.674-6.252 11.674-11.674 0-.176-.004-.354-.012-.53a8.341 8.341 0 0 0 2.046-2.123L20 2.799Z" fill="currentColor"></path></svg>